<svg width="106" height="578" viewBox="0 0 106 578" fill="none" xmlns="http://www.w3.org/2000/svg">
<path fill-rule="evenodd" clip-rule="evenodd" d="M29.6381 301.523H50.2183C66.4773 301.523 75.9691 264.764 75.9691 198.832C75.9691 133.293 66.5725 96.5338 50.3135 96.5338H29.6381V301.523ZM57.834 1.03345C85.6502 1.03345 104.824 79.7515 104.824 198.43C104.824 316.708 84.9911 395.827 56.4205 395.827H29.637V577.638H1.25684V1.03345H57.834Z" fill="white"/>
<path d="M29.6381 301.523H29.375V301.786H29.6381V301.523ZM29.6381 96.5338V96.2707H29.375V96.5338H29.6381ZM29.637 395.827V395.564H29.3739V395.827H29.637ZM29.637 577.638V577.901H29.9V577.638H29.637ZM1.25684 577.638H0.993768V577.901H1.25684V577.638ZM1.25684 1.03345V0.770379H0.993768V1.03345H1.25684ZM29.6381 301.786H50.2183V301.26H29.6381V301.786ZM50.2183 301.786C54.3979 301.786 58.1101 299.419 61.3157 294.902C64.519 290.387 67.2397 283.696 69.4459 274.967C73.8591 257.504 76.2322 231.806 76.2322 198.832H75.706C75.706 231.79 73.3332 257.438 68.9358 274.838C66.7366 283.539 64.0358 290.159 60.8866 294.597C57.7396 299.032 54.1682 301.26 50.2183 301.26V301.786ZM76.2322 198.832C76.2322 166.054 73.8829 140.454 69.4935 123.041C67.2993 114.336 64.5905 107.658 61.3961 103.149C58.1995 98.6378 54.4931 96.2707 50.3135 96.2707V96.7969C54.2633 96.7969 57.8287 99.0247 60.9668 103.454C64.1072 107.886 66.7961 114.493 68.9834 123.17C73.357 140.521 75.706 166.07 75.706 198.832H76.2322ZM50.3135 96.2707H29.6381V96.7969H50.3135V96.2707ZM29.375 96.5338V301.523H29.9012V96.5338H29.375ZM57.834 1.29652C64.6498 1.29652 70.9946 6.11814 76.6874 15.3258C82.3754 24.5257 87.3719 38.0433 91.5044 55.2886C99.7682 89.7752 104.561 139.102 104.561 198.43H105.087C105.087 139.08 100.293 89.7082 92.016 55.166C87.8779 37.897 82.8654 24.3176 77.135 15.0492C71.4094 5.78852 64.9264 0.770379 57.834 0.770379V1.29652ZM104.561 198.43C104.561 257.558 99.6035 306.884 91.0809 341.42C86.8191 358.69 81.6699 372.245 75.8146 381.476C69.9552 390.714 63.4278 395.564 56.4205 395.564V396.09C63.6985 396.09 70.3642 391.051 76.2589 381.758C82.1579 372.458 87.3239 358.84 91.5917 341.546C100.128 306.953 105.087 257.581 105.087 198.43H104.561ZM56.4205 395.564H29.637V396.09H56.4205V395.564ZM29.3739 395.827V577.638H29.9V395.827H29.3739ZM29.637 577.375H1.25684V577.901H29.637V577.375ZM1.5199 577.638V1.03345H0.993768V577.638H1.5199ZM1.25684 1.29652H57.834V0.770379H1.25684V1.29652Z" fill="#251714"/>
</svg>
