<svg width="132" height="598" viewBox="0 0 132 598" fill="none" xmlns="http://www.w3.org/2000/svg">
<path fill-rule="evenodd" clip-rule="evenodd" d="M29.3233 299.534C29.3233 420.211 43.5098 496.53 65.7891 496.53C87.9659 496.53 102.16 420.211 102.16 299.534C102.16 178.463 87.9659 101.736 65.7891 101.736C43.605 101.736 29.3233 178.463 29.3233 299.534M131.206 299.534C131.206 482.942 105.916 597.624 65.7883 597.624C25.558 597.624 0.371094 482.942 0.371094 299.534C0.371094 115.725 25.558 1.04297 65.7883 1.04297C105.916 1.04297 131.206 115.725 131.206 299.534" fill="white"/>
<path d="M29.0603 299.534C29.0603 359.88 32.6071 409.147 38.9428 443.334C42.1102 460.425 45.9775 473.763 50.4563 482.836C54.9242 491.886 60.0535 496.793 65.7891 496.793V496.267C60.385 496.267 55.3863 491.634 50.9281 482.603C46.4809 473.595 42.6242 460.311 39.4601 443.238C33.1328 409.096 29.5864 359.865 29.5864 299.534H29.0603ZM65.7891 496.793C71.4996 496.793 76.61 491.885 81.0639 482.836C85.5289 473.763 89.3874 460.425 92.5493 443.334C98.874 409.147 102.423 359.88 102.423 299.534H101.897C101.897 359.865 98.3484 409.096 92.032 443.238C88.8734 460.311 85.0254 473.595 80.5918 482.603C76.1471 491.634 71.167 496.267 65.7891 496.267V496.793ZM102.423 299.534C102.423 238.991 98.874 189.524 92.5494 155.186C89.3875 138.019 85.529 124.617 81.0641 115.501C76.6106 106.407 71.5003 101.473 65.7891 101.473V101.999C71.1663 101.999 76.1466 106.656 80.5916 115.732C85.0253 124.785 88.8733 138.132 92.032 155.281C98.3484 189.574 101.897 239.006 101.897 299.534H102.423ZM65.7891 101.473C60.0763 101.473 54.9591 106.407 50.4962 115.5C46.0221 124.617 42.1518 138.019 38.9785 155.186C32.6309 189.524 29.0603 238.991 29.0603 299.534H29.5864C29.5864 239.006 33.1566 189.574 39.4959 155.281C42.6659 138.132 46.5256 124.785 50.9686 115.732C55.4228 106.656 60.4099 101.999 65.7891 101.999V101.473ZM130.942 299.534C130.942 391.23 124.62 465.731 113.288 517.301C107.621 543.088 100.705 563.124 92.7119 576.706C84.7139 590.296 75.6784 597.361 65.7883 597.361V597.887C75.9621 597.887 85.1357 590.617 93.1654 576.973C101.2 563.321 108.13 543.223 113.802 517.414C125.146 465.791 131.469 391.247 131.469 299.534H130.942ZM65.7883 597.361C55.8724 597.361 46.8241 590.296 38.8214 576.706C30.8233 563.124 23.9106 543.088 18.2503 517.301C6.9306 465.731 0.634162 391.23 0.634162 299.534H0.108026C0.108026 391.247 6.40506 465.791 17.7364 517.414C23.4016 543.223 30.3288 563.321 38.368 576.973C46.4027 590.617 55.5891 597.887 65.7883 597.887V597.361ZM0.634162 299.534C0.634162 207.638 6.93061 133.037 18.2503 81.4165C23.9107 55.6042 30.8233 35.5561 38.8214 21.9675C46.8241 8.37119 55.8724 1.30604 65.7883 1.30604V0.779901C55.5891 0.779901 46.4027 8.04999 38.368 21.7006C30.3288 35.3589 23.4016 55.4694 17.7364 81.3038C6.40506 132.977 0.108026 207.621 0.108026 299.534H0.634162ZM65.7883 1.30604C75.6783 1.30604 84.7139 8.37089 92.7119 21.9674C100.705 35.5561 107.621 55.6042 113.288 81.4165C124.62 133.037 130.942 207.638 130.942 299.534H131.469C131.469 207.621 125.146 132.977 113.802 81.3037C108.13 55.4693 101.2 35.3589 93.1654 21.7007C85.1357 8.05029 75.9622 0.779901 65.7883 0.779901V1.30604Z" fill="#251714"/>
</svg>
