<svg width="110" height="578" viewBox="0 0 110 578" fill="none" xmlns="http://www.w3.org/2000/svg">
<path fill-rule="evenodd" clip-rule="evenodd" d="M28.8819 279.146H53.7832C68.0721 279.146 76.436 244.385 76.436 187.241C76.436 131.3 67.6034 95.3363 53.5049 95.3363H28.8819V279.146ZM28.8812 577.637H0.500977V1.03223H56.507C87.7142 1.03223 105.57 70.9617 105.57 184.841C105.57 258.768 96.5469 322.702 80.9469 348.674L109.518 577.637H77.3802L52.0907 366.652H28.8812V577.637Z" fill="white"/>
<path d="M28.8819 279.146H28.6188V279.409H28.8819V279.146ZM28.8819 95.3363V95.0733H28.6188V95.3363H28.8819ZM28.8812 577.637V577.9H29.1442V577.637H28.8812ZM0.500977 577.637H0.237909V577.9H0.500977V577.637ZM0.500977 1.03223V0.769159H0.237909V1.03223H0.500977ZM80.9469 348.674L80.7214 348.538L80.6746 348.616L80.6859 348.707L80.9469 348.674ZM109.518 577.637V577.9H109.815L109.779 577.604L109.518 577.637ZM77.3802 577.637L77.119 577.668L77.1467 577.9H77.3802V577.637ZM52.0907 366.652L52.3519 366.621L52.3241 366.389H52.0907V366.652ZM28.8812 366.652V366.389H28.6181V366.652H28.8812ZM28.8819 279.409H53.7832V278.882H28.8819V279.409ZM53.7832 279.409C57.4782 279.409 60.7504 277.157 63.5691 272.968C66.3875 268.779 68.7817 262.614 70.7235 254.685C74.6079 238.822 76.6991 215.822 76.6991 187.241H76.173C76.173 215.804 74.0822 238.756 70.2124 254.56C68.2771 262.463 65.9011 268.56 63.1326 272.674C60.3643 276.789 57.2326 278.882 53.7832 278.882V279.409ZM76.6991 187.241C76.6991 159.261 74.4905 136.26 70.5127 120.247C68.5243 112.243 66.0895 105.966 63.255 101.685C60.4219 97.405 57.1566 95.0733 53.5049 95.0733V95.5994C56.9024 95.5994 60.0281 97.7632 62.8163 101.975C65.6032 106.185 68.02 112.395 70.0021 120.374C73.9652 136.328 76.173 159.281 76.173 187.241H76.6991ZM53.5049 95.0733H28.8819V95.5994H53.5049V95.0733ZM28.6188 95.3363V279.146H29.145V95.3363H28.6188ZM28.8812 577.374H0.500977V577.9H28.8812V577.374ZM0.764045 577.637V1.03223H0.237909V577.637H0.764045ZM0.500977 1.29529H56.507V0.769159H0.500977V1.29529ZM56.507 1.29529C64.1957 1.29529 71.093 5.59823 77.1259 13.8928C83.1609 22.1904 88.3082 34.4547 92.4868 50.299C100.843 81.9845 105.307 127.911 105.307 184.841H105.833C105.833 127.892 101.369 81.9141 92.9955 50.1649C88.8093 34.2918 83.6413 21.9563 77.5514 13.5833C71.4593 5.20741 64.4219 0.769159 56.507 0.769159V1.29529ZM105.307 184.841C105.307 221.795 103.052 256.247 98.8482 284.702C94.6432 313.168 88.493 335.6 80.7214 348.538L81.1724 348.809C89.0008 335.776 95.1621 313.255 99.3686 284.779C103.577 256.293 105.833 221.814 105.833 184.841H105.307ZM80.6859 348.707L109.256 577.669L109.779 577.604L81.208 348.641L80.6859 348.707ZM109.518 577.374H77.3802V577.9H109.518V577.374ZM77.6414 577.606L52.3519 366.621L51.8295 366.684L77.119 577.668L77.6414 577.606ZM52.0907 366.389H28.8812V366.915H52.0907V366.389ZM28.6181 366.652V577.637H29.1442V366.652H28.6181Z" fill="#251714"/>
</svg>
